<svg xmlns="http://www.w3.org/2000/svg" xmlns:xlink="http://www.w3.org/1999/xlink" x="0" y="0" enable-background="new 0 0 32 32" version="1.1" viewBox="0 0 32 32" xml:space="preserve"><circle cx="16" cy="16" r="16" fill="#222"/><polyline fill="none" stroke="#FFF" stroke-linecap="round" stroke-linejoin="round" stroke-miterlimit="10" stroke-width="2" points="10 17 10 23 22 23 22 17"/><line x1="10" x2="22" y1="19" y2="19" fill="none" stroke="#FFF" stroke-linecap="round" stroke-linejoin="round" stroke-miterlimit="10" stroke-width="2"/><polyline fill="none" stroke="#FFF" stroke-linecap="round" stroke-linejoin="round" stroke-miterlimit="10" stroke-width="2" points="8 12 11 7 21 7 24 12"/><path fill="#FFF" d="M10,15c1.7,0,3-1.3,3-3H7C7,13.7,8.3,15,10,15z"/><path fill="#FFF" d="M22,15c1.7,0,3-1.3,3-3h-6C19,13.7,20.3,15,22,15z"/><path fill="#FFF" d="M16,15c1.7,0,3-1.3,3-3h-6C13,13.7,14.3,15,16,15z"/></svg>